<?xml version="1.0" encoding="UTF-8"?>
<svg id="uuid-67584645-2e22-493a-9601-e5855487ddb1" data-name="Ebene 3" xmlns="http://www.w3.org/2000/svg" width="163.619" height="111.018" viewBox="0 0 163.619 111.018">
  <path d="M157.846,0H6.77c-1.036,0-1.536,1.269-.779,1.976l75.302,70.249c.437.408,1.116.409,1.555.002L158.622,1.978c.761-.706.262-1.978-.776-1.978Z" fill="#fff"/>
  <path d="M0,5.554v98.296c0,1.055,1.308,1.545,2.001.75l47.188-54.069c.404-.463.369-1.163-.079-1.583L1.922,4.721c-.729-.683-1.922-.166-1.922.833Z" fill="#fff"/>
  <path d="M114.43,50.532l47.188,54.069c.693.795,2.001.304,2.001-.75V5.554c0-.999-1.193-1.516-1.922-.833l-47.188,44.227c-.448.42-.484,1.12-.079,1.583Z" fill="#fff"/>
  <path d="M81.158,79.239l-27.258-25.624c-.471-.443-1.216-.406-1.641.081L3.837,109.125c-.645.738-.121,1.892.86,1.892h154.007c.976,0,1.502-1.146.865-1.886l-47.692-55.428c-.423-.491-1.169-.532-1.643-.091l-27.516,25.629c-.44.41-1.122.408-1.56-.004Z" fill="#fff"/>
</svg>