<?xml version="1.0" encoding="UTF-8"?>
<svg id="uuid-54adf172-bf31-49b1-ba62-5667d960b160" data-name="Ebene 3" xmlns="http://www.w3.org/2000/svg" width="117.177" height="122.088" viewBox="0 0 117.177 122.088">
  <path d="M48.901,31.229c-1.673-5.131-9.607-26.099-11.252-30.44-.183-.483-.641-.789-1.158-.789H1.26C.583,0,.029.53.017,1.208c-.164,9.123.21,67.719,35.578,99.619,27.681,24.967,71.673,21.426,79.021,20.634.611-.066,1.078-.564,1.107-1.177l1.454-30.346c.025-.515-.271-.992-.743-1.199l-21.169-9.282c-.636-.279-1.377.017-1.646.656l-7.093,16.844c-.261.62-.966.919-1.593.678-5.038-1.936-25.595-10.114-33.759-17.674-7.873-7.29-18.76-31.298-21.14-36.679-.268-.605-.014-1.309.576-1.609l17.666-8.967c.547-.277.817-.895.627-1.477Z" fill="#fff"/>
</svg>